# xmcd CD database file
#
# Track frame offsets:
#	150
#	16493
#	41224
#	64395
#	93147
#	115952
#	142830
#	179873
#	208172
#
# Disc length: 3176 seconds
#
# Revision: 0
# Processed by: cddbd v1.5.2PL0 Copyright (c) Steve Scherf et al.
# Submitted via: CDex 1.70beta2
#
DISCID=860c6609
DTITLE=Emil Kowalski - cl, C.Paciorek-accord, S.Jaskulke-piano, D.Bukowski-vibr, J.Mackiewicz-bass, T.Sowinski-drums - Emil Kowalski Playing Benny Goodman
DYEAR=2003
DGENRE=Jazz
TTITLE0=Air Mail Special
TTITLE1=Stomping at the Savoy
TTITLE2=Moonglow
TTITLE3=Diga Diga Doo
TTITLE4=Bennys Buggle
TTITLE5=The World is Waiting for the Sunrise
TTITLE6=Evry Time we Say Goodbye
TTITLE7=I've Got Rythm - Passport
TTITLE8=After you've Gone
EXTD=YEAR: 2003
EXTT0=
EXTT1=
EXTT2=
EXTT3=
EXTT4=
EXTT5=
EXTT6=
EXTT7=
EXTT8=
PLAYORDER=
